<svg width="55" height="25" viewBox="0 0 55 25" fill="none" xmlns="http://www.w3.org/2000/svg">
<path d="M14.722 22.688V25H1.66602V22.688H6.88502V6.079C6.88502 5.58033 6.90202 5.076 6.93602 4.566L2.60102 8.289C2.45368 8.41367 2.30635 8.493 2.15902 8.527C2.01168 8.54967 1.87568 8.54967 1.75102 8.527C1.62635 8.50433 1.50735 8.459 1.39402 8.391C1.29202 8.323 1.21268 8.24933 1.15602 8.17L0.204016 6.861L7.46302 0.587998H9.92802V22.688H14.722ZM29.5487 16.211V6.164C29.5487 5.86933 29.56 5.54633 29.5827 5.195C29.6053 4.84367 29.6393 4.48667 29.6847 4.124L20.8107 16.211H29.5487ZM35.8897 16.211V17.945C35.8897 18.1263 35.833 18.2793 35.7197 18.404C35.6177 18.5287 35.4533 18.591 35.2267 18.591H32.2007V25H29.5487V18.591H18.7367C18.51 18.591 18.3117 18.5287 18.1417 18.404C17.983 18.268 17.881 18.1037 17.8357 17.911L17.5297 16.364L29.3787 0.638999H32.2007V16.211H35.8897ZM54.8813 14.732H47.9453V22.042H45.4803V14.732H38.5783V12.437H45.4803V5.178H47.9453V12.437H54.8813V14.732Z" fill="black"/>
</svg>
