<svg width="59" height="59" viewBox="0 0 59 59" fill="none" xmlns="http://www.w3.org/2000/svg">
<path d="M6.1516 7.8475C6.28694 6.90017 6.54794 6.064 6.9346 5.339C7.32127 4.60433 7.80944 3.9905 8.3991 3.4975C8.99844 3.0045 9.67994 2.63233 10.4436 2.381C11.2169 2.12 12.0483 1.9895 12.9376 1.9895C13.8173 1.9895 14.6293 2.11517 15.3736 2.3665C16.1179 2.61783 16.7559 2.9755 17.2876 3.4395C17.8289 3.9035 18.2494 4.46417 18.5491 5.1215C18.8488 5.77883 18.9986 6.50867 18.9986 7.311C18.9986 7.96833 18.9116 8.558 18.7376 9.08C18.5733 9.59233 18.3316 10.0418 18.0126 10.4285C17.7033 10.8152 17.3263 11.1438 16.8816 11.4145C16.4369 11.6852 15.9391 11.9075 15.3881 12.0815C16.7414 12.4295 17.7564 13.0288 18.4331 13.8795C19.1194 14.7205 19.4626 15.7742 19.4626 17.0405C19.4626 17.9975 19.2789 18.8578 18.9116 19.6215C18.5539 20.3852 18.0609 21.0377 17.4326 21.579C16.8043 22.1107 16.0696 22.5215 15.2286 22.8115C14.3973 23.0918 13.5031 23.232 12.5461 23.232C11.4441 23.232 10.5016 23.0967 9.7186 22.826C8.9356 22.5457 8.27344 22.1638 7.7321 21.6805C7.19077 21.1972 6.7461 20.6268 6.3981 19.9695C6.0501 19.3025 5.75527 18.5823 5.5136 17.809L6.6301 17.345C6.9201 17.2193 7.20044 17.1855 7.4711 17.2435C7.75143 17.3015 7.95443 17.461 8.0801 17.722C8.20577 17.9927 8.36044 18.3165 8.5441 18.6935C8.73744 19.0705 8.99844 19.433 9.3271 19.781C9.65577 20.129 10.0714 20.4238 10.5741 20.6655C11.0864 20.9072 11.7341 21.028 12.5171 21.028C13.2421 21.028 13.8753 20.912 14.4166 20.68C14.9676 20.4383 15.4219 20.129 15.7796 19.752C16.1469 19.375 16.4224 18.9545 16.6061 18.4905C16.7898 18.0265 16.8816 17.5673 16.8816 17.113C16.8816 16.5523 16.8091 16.04 16.6641 15.576C16.5191 15.112 16.2484 14.7108 15.8521 14.3725C15.4558 14.0342 14.9096 13.7683 14.2136 13.575C13.5273 13.3817 12.6428 13.285 11.5601 13.285V11.4145C12.4494 11.4048 13.2034 11.3082 13.8221 11.1245C14.4504 10.9408 14.9579 10.6895 15.3446 10.3705C15.7409 10.0515 16.0261 9.66967 16.2001 9.225C16.3838 8.78033 16.4756 8.28733 16.4756 7.746C16.4756 7.14667 16.3789 6.62467 16.1856 6.18C16.0019 5.73533 15.7458 5.368 15.4171 5.078C15.0884 4.788 14.6969 4.5705 14.2426 4.4255C13.7979 4.2805 13.3146 4.208 12.7926 4.208C12.2706 4.208 11.7824 4.28533 11.3281 4.44C10.8834 4.59467 10.4871 4.81217 10.1391 5.0925C9.80077 5.36317 9.5156 5.687 9.2836 6.064C9.0516 6.441 8.88727 6.85667 8.7906 7.311C8.66494 7.64933 8.50544 7.8765 8.3121 7.9925C8.12844 8.09883 7.85777 8.12783 7.5001 8.0795L6.1516 7.8475ZM22.9739 7.8475C23.1092 6.90017 23.3702 6.064 23.7569 5.339C24.1435 4.60433 24.6317 3.9905 25.2214 3.4975C25.8207 3.0045 26.5022 2.63233 27.2659 2.381C28.0392 2.12 28.8705 1.9895 29.7599 1.9895C30.6395 1.9895 31.4515 2.11517 32.1959 2.3665C32.9402 2.61783 33.5782 2.9755 34.1099 3.4395C34.6512 3.9035 35.0717 4.46417 35.3714 5.1215C35.671 5.77883 35.8209 6.50867 35.8209 7.311C35.8209 7.96833 35.7339 8.558 35.5599 9.08C35.3955 9.59233 35.1539 10.0418 34.8349 10.4285C34.5255 10.8152 34.1485 11.1438 33.7039 11.4145C33.2592 11.6852 32.7614 11.9075 32.2104 12.0815C33.5637 12.4295 34.5787 13.0288 35.2554 13.8795C35.9417 14.7205 36.2849 15.7742 36.2849 17.0405C36.2849 17.9975 36.1012 18.8578 35.7339 19.6215C35.3762 20.3852 34.8832 21.0377 34.2549 21.579C33.6265 22.1107 32.8919 22.5215 32.0509 22.8115C31.2195 23.0918 30.3254 23.232 29.3684 23.232C28.2664 23.232 27.3239 23.0967 26.5409 22.826C25.7579 22.5457 25.0957 22.1638 24.5544 21.6805C24.013 21.1972 23.5684 20.6268 23.2204 19.9695C22.8724 19.3025 22.5775 18.5823 22.3359 17.809L23.4524 17.345C23.7424 17.2193 24.0227 17.1855 24.2934 17.2435C24.5737 17.3015 24.7767 17.461 24.9024 17.722C25.028 17.9927 25.1827 18.3165 25.3664 18.6935C25.5597 19.0705 25.8207 19.433 26.1494 19.781C26.478 20.129 26.8937 20.4238 27.3964 20.6655C27.9087 20.9072 28.5564 21.028 29.3394 21.028C30.0644 21.028 30.6975 20.912 31.2389 20.68C31.7899 20.4383 32.2442 20.129 32.6019 19.752C32.9692 19.375 33.2447 18.9545 33.4284 18.4905C33.612 18.0265 33.7039 17.5673 33.7039 17.113C33.7039 16.5523 33.6314 16.04 33.4864 15.576C33.3414 15.112 33.0707 14.7108 32.6744 14.3725C32.278 14.0342 31.7319 13.7683 31.0359 13.575C30.3495 13.3817 29.465 13.285 28.3824 13.285V11.4145C29.2717 11.4048 30.0257 11.3082 30.6444 11.1245C31.2727 10.9408 31.7802 10.6895 32.1669 10.3705C32.5632 10.0515 32.8484 9.66967 33.0224 9.225C33.206 8.78033 33.2979 8.28733 33.2979 7.746C33.2979 7.14667 33.2012 6.62467 33.0079 6.18C32.8242 5.73533 32.568 5.368 32.2394 5.078C31.9107 4.788 31.5192 4.5705 31.0649 4.4255C30.6202 4.2805 30.1369 4.208 29.6149 4.208C29.0929 4.208 28.6047 4.28533 28.1504 4.44C27.7057 4.59467 27.3094 4.81217 26.9614 5.0925C26.623 5.36317 26.3379 5.687 26.1059 6.064C25.8739 6.441 25.7095 6.85667 25.6129 7.311C25.4872 7.64933 25.3277 7.8765 25.1344 7.9925C24.9507 8.09883 24.68 8.12783 24.3224 8.0795L22.9739 7.8475ZM53.8611 12.618C53.8611 14.4353 53.663 16.011 53.2666 17.345C52.88 18.6693 52.3483 19.7665 51.6716 20.6365C50.995 21.5065 50.1926 22.1542 49.2646 22.5795C48.3463 23.0048 47.3603 23.2175 46.3066 23.2175C45.2433 23.2175 44.2525 23.0048 43.3341 22.5795C42.4255 22.1542 41.6328 21.5065 40.9561 20.6365C40.2795 19.7665 39.7478 18.6693 39.3611 17.345C38.9745 16.011 38.7811 14.4353 38.7811 12.618C38.7811 10.8007 38.9745 9.225 39.3611 7.891C39.7478 6.557 40.2795 5.455 40.9561 4.585C41.6328 3.70533 42.4255 3.05283 43.3341 2.6275C44.2525 2.20217 45.2433 1.9895 46.3066 1.9895C47.3603 1.9895 48.3463 2.20217 49.2646 2.6275C50.1926 3.05283 50.995 3.70533 51.6716 4.585C52.3483 5.455 52.88 6.557 53.2666 7.891C53.663 9.225 53.8611 10.8007 53.8611 12.618ZM51.1786 12.618C51.1786 11.0327 51.0433 9.7035 50.7726 8.6305C50.5116 7.54783 50.154 6.67783 49.6996 6.0205C49.255 5.36317 48.7378 4.89433 48.1481 4.614C47.5585 4.324 46.9446 4.179 46.3066 4.179C45.6686 4.179 45.0548 4.324 44.4651 4.614C43.8755 4.89433 43.3583 5.36317 42.9136 6.0205C42.469 6.67783 42.1113 7.54783 41.8406 8.6305C41.5796 9.7035 41.4491 11.0327 41.4491 12.618C41.4491 14.2033 41.5796 15.5325 41.8406 16.6055C42.1113 17.6785 42.469 18.5437 42.9136 19.201C43.3583 19.8583 43.8755 20.332 44.4651 20.622C45.0548 20.9023 45.6686 21.0425 46.3066 21.0425C46.9446 21.0425 47.5585 20.9023 48.1481 20.622C48.7378 20.332 49.255 19.8583 49.6996 19.201C50.154 18.5437 50.5116 17.6785 50.7726 16.6055C51.0433 15.5325 51.1786 14.2033 51.1786 12.618ZM14.8516 50.5035V41.934C14.8516 41.6827 14.8613 41.4072 14.8806 41.1075C14.8999 40.8078 14.9289 40.5033 14.9676 40.194L7.3986 50.5035H14.8516ZM20.2601 50.5035V51.9825C20.2601 52.1372 20.2118 52.2677 20.1151 52.374C20.0281 52.4803 19.8879 52.5335 19.6946 52.5335H17.1136V58H14.8516V52.5335H5.6296C5.43627 52.5335 5.2671 52.4803 5.1221 52.374C4.98677 52.258 4.89977 52.1178 4.8611 51.9535L4.6001 50.634L14.7066 37.2215H17.1136V50.5035H20.2601ZM35.4004 55.5495C35.6807 55.5495 35.903 55.6317 36.0674 55.796C36.2317 55.9603 36.3139 56.173 36.3139 56.434V58H22.4519V57.1155C22.4519 56.9318 22.4905 56.7433 22.5679 56.55C22.6452 56.3567 22.766 56.1778 22.9304 56.0135L29.5859 49.329C30.1369 48.7683 30.6395 48.2318 31.0939 47.7195C31.5482 47.1975 31.9349 46.6755 32.2539 46.1535C32.5729 45.6315 32.8194 45.1047 32.9934 44.573C33.1674 44.0317 33.2544 43.4565 33.2544 42.8475C33.2544 42.2385 33.1577 41.7068 32.9644 41.2525C32.771 40.7885 32.5052 40.4067 32.1669 40.107C31.8382 39.8073 31.4467 39.585 30.9924 39.44C30.538 39.2853 30.0499 39.208 29.5279 39.208C28.9962 39.208 28.508 39.2853 28.0634 39.44C27.6187 39.5947 27.2224 39.8122 26.8744 40.0925C26.536 40.3632 26.2509 40.687 26.0189 41.064C25.7869 41.441 25.6225 41.8567 25.5259 42.311C25.4099 42.6493 25.2504 42.8765 25.0474 42.9925C24.854 43.0988 24.5785 43.1278 24.2209 43.0795L22.8724 42.8475C23.0077 41.9002 23.2687 41.064 23.6554 40.339C24.0517 39.6043 24.5447 38.9905 25.1344 38.4975C25.7337 38.0045 26.4152 37.6323 27.1789 37.381C27.9425 37.12 28.769 36.9895 29.6584 36.9895C30.538 36.9895 31.3597 37.12 32.1234 37.381C32.887 37.642 33.5492 38.0238 34.1099 38.5265C34.6705 39.0195 35.1104 39.6237 35.4294 40.339C35.7484 41.0543 35.9079 41.8663 35.9079 42.775C35.9079 43.5483 35.7919 44.2685 35.5599 44.9355C35.3279 45.5928 35.0137 46.2212 34.6174 46.8205C34.221 47.4198 33.7619 48.0047 33.2399 48.575C32.7275 49.1453 32.1814 49.7205 31.6014 50.3005L26.1204 55.8975C26.507 55.7912 26.8985 55.709 27.2949 55.651C27.6912 55.5833 28.073 55.5495 28.4404 55.5495H35.4004ZM53.8611 47.618C53.8611 49.4353 53.663 51.011 53.2666 52.345C52.88 53.6693 52.3483 54.7665 51.6716 55.6365C50.995 56.5065 50.1926 57.1542 49.2646 57.5795C48.3463 58.0048 47.3603 58.2175 46.3066 58.2175C45.2433 58.2175 44.2525 58.0048 43.3341 57.5795C42.4255 57.1542 41.6328 56.5065 40.9561 55.6365C40.2795 54.7665 39.7478 53.6693 39.3611 52.345C38.9745 51.011 38.7811 49.4353 38.7811 47.618C38.7811 45.8007 38.9745 44.225 39.3611 42.891C39.7478 41.557 40.2795 40.455 40.9561 39.585C41.6328 38.7053 42.4255 38.0528 43.3341 37.6275C44.2525 37.2022 45.2433 36.9895 46.3066 36.9895C47.3603 36.9895 48.3463 37.2022 49.2646 37.6275C50.1926 38.0528 50.995 38.7053 51.6716 39.585C52.3483 40.455 52.88 41.557 53.2666 42.891C53.663 44.225 53.8611 45.8007 53.8611 47.618ZM51.1786 47.618C51.1786 46.0327 51.0433 44.7035 50.7726 43.6305C50.5116 42.5478 50.154 41.6778 49.6996 41.0205C49.255 40.3632 48.7378 39.8943 48.1481 39.614C47.5585 39.324 46.9446 39.179 46.3066 39.179C45.6686 39.179 45.0548 39.324 44.4651 39.614C43.8755 39.8943 43.3583 40.3632 42.9136 41.0205C42.469 41.6778 42.1113 42.5478 41.8406 43.6305C41.5796 44.7035 41.4491 46.0327 41.4491 47.618C41.4491 49.2033 41.5796 50.5325 41.8406 51.6055C42.1113 52.6785 42.469 53.5437 42.9136 54.201C43.3583 54.8583 43.8755 55.332 44.4651 55.622C45.0548 55.9023 45.6686 56.0425 46.3066 56.0425C46.9446 56.0425 47.5585 55.9023 48.1481 55.622C48.7378 55.332 49.255 54.8583 49.6996 54.201C50.154 53.5437 50.5116 52.6785 50.7726 51.6055C51.0433 50.5325 51.1786 49.2033 51.1786 47.618Z" fill="black"/>
</svg>
