<svg width="37" height="62" viewBox="0 0 37 62" fill="none" xmlns="http://www.w3.org/2000/svg">
<g clip-path="url(#clip0)">
<path d="M35.4922 42.625H30.2496C29.4859 42.625 28.8668 43.2756 28.8668 44.0781V50.2355H14.75V34.875H24.4297C25.1933 34.875 25.8125 34.2244 25.8125 33.4219V28.5781C25.8125 27.7756 25.1933 27.125 24.4297 27.125H14.75V19.4288C14.75 15.5216 17.5804 12.516 21.8706 12.516C24.5968 12.516 27.1573 13.9092 28.5141 14.7985C29.1076 15.1876 29.884 15.0469 30.3218 14.4734L33.6052 10.173C34.093 9.53407 33.9831 8.59814 33.361 8.10456C31.4733 6.60688 27.2617 3.875 21.6561 3.875C12.2178 3.875 5.53125 10.2617 5.53125 19.1281V27.125H2.30469C1.54103 27.125 0.921875 27.7756 0.921875 28.5781V33.4219C0.921875 34.2244 1.54103 34.875 2.30469 34.875H5.53125V50.375H1.38281C0.619154 50.375 0 51.0256 0 51.8281V56.6719C0 57.4744 0.619154 58.125 1.38281 58.125H35.4922C36.2558 58.125 36.875 57.4744 36.875 56.6719V44.0781C36.875 43.2756 36.2558 42.625 35.4922 42.625Z" fill="black"/>
</g>
<defs>
<clipPath id="clip0">
<rect width="36.875" height="62" fill="white"/>
</clipPath>
</defs>
</svg>
