<svg width="59" height="59" viewBox="0 0 59 59" fill="none" xmlns="http://www.w3.org/2000/svg">
<g clip-path="url(#clip0)">
<path d="M7.36456 34.768C7.83923 34.768 8.26323 34.688 8.63656 34.528C9.0099 34.368 9.32456 34.144 9.58056 33.856C9.8419 33.568 10.0392 33.224 10.1726 32.824C10.3112 32.424 10.3806 31.984 10.3806 31.504V24.536H11.9246V31.504C11.9246 32.1653 11.8179 32.7787 11.6046 33.344C11.3966 33.9093 11.0952 34.4 10.7006 34.816C10.3112 35.2267 9.8339 35.5493 9.26856 35.784C8.70323 36.0187 8.06856 36.136 7.36456 36.136C6.66056 36.136 6.0259 36.0187 5.46056 35.784C4.89523 35.5493 4.41523 35.2267 4.02056 34.816C3.6259 34.4 3.3219 33.9093 3.10856 33.344C2.90056 32.7787 2.79656 32.1653 2.79656 31.504V24.536H4.34056V31.496C4.34056 31.976 4.40723 32.416 4.54056 32.816C4.67923 33.216 4.87656 33.56 5.13256 33.848C5.3939 34.136 5.71123 34.3627 6.08456 34.528C6.46323 34.688 6.8899 34.768 7.36456 34.768ZM16.2502 29.56H16.8342C17.0369 29.56 17.1995 29.536 17.3222 29.488C17.4449 29.4347 17.5569 29.3467 17.6582 29.224L21.4742 24.904C21.5809 24.7653 21.6929 24.6693 21.8102 24.616C21.9275 24.5627 22.0715 24.536 22.2422 24.536H23.5542L19.1862 29.472C19.0795 29.6 18.9755 29.7067 18.8742 29.792C18.7782 29.872 18.6742 29.9387 18.5622 29.992C18.7062 30.04 18.8369 30.112 18.9542 30.208C19.0715 30.2987 19.1862 30.4187 19.2982 30.568L23.8582 36H22.5142C22.4129 36 22.3249 35.9947 22.2502 35.984C22.1809 35.968 22.1195 35.9467 22.0662 35.92C22.0129 35.888 21.9649 35.8533 21.9222 35.816C21.8849 35.7733 21.8475 35.7253 21.8102 35.672L17.8582 31.12C17.7515 30.9867 17.6369 30.8933 17.5142 30.84C17.3915 30.7813 17.2049 30.752 16.9542 30.752H16.2502V36H14.7062V24.536H16.2502V29.56ZM31.3879 31.744L29.5879 27.08C29.5346 26.9413 29.4786 26.7813 29.4199 26.6C29.3613 26.4133 29.3053 26.216 29.2519 26.008C29.1399 26.44 29.0253 26.8 28.9079 27.088L27.1079 31.744H31.3879ZM34.6199 36H33.4199C33.2813 36 33.1693 35.9653 33.0839 35.896C32.9986 35.8267 32.9346 35.7387 32.8919 35.632L31.8199 32.864H26.6759L25.6039 35.632C25.5719 35.728 25.5106 35.8133 25.4199 35.888C25.3293 35.9627 25.2173 36 25.0839 36H23.8839L28.4679 24.536H30.0359L34.6199 36ZM39.3041 30.088C39.7521 30.088 40.1467 30.0347 40.4881 29.928C40.8347 29.816 41.1227 29.6613 41.3521 29.464C41.5867 29.2613 41.7627 29.0213 41.8801 28.744C41.9974 28.4667 42.0561 28.16 42.0561 27.824C42.0561 27.1413 41.8321 26.6267 41.3841 26.28C40.9361 25.9333 40.2641 25.76 39.3681 25.76H37.6721V30.088H39.3041ZM44.6001 36H43.2241C42.9414 36 42.7334 35.8907 42.6001 35.672L39.6241 31.576C39.5334 31.448 39.4347 31.3573 39.3281 31.304C39.2267 31.2453 39.0667 31.216 38.8481 31.216H37.6721V36H36.1281V24.536H39.3681C40.0934 24.536 40.7201 24.6107 41.2481 24.76C41.7761 24.904 42.2107 25.1147 42.5521 25.392C42.8987 25.6693 43.1547 26.0053 43.3201 26.4C43.4854 26.7893 43.5681 27.2267 43.5681 27.712C43.5681 28.1173 43.5041 28.496 43.3761 28.848C43.2481 29.2 43.0614 29.5173 42.8161 29.8C42.5761 30.0773 42.2801 30.3147 41.9281 30.512C41.5814 30.7093 41.1867 30.8587 40.7441 30.96C40.9414 31.072 41.1121 31.2347 41.2561 31.448L44.6001 36ZM52.2473 31.744L50.4473 27.08C50.394 26.9413 50.338 26.7813 50.2793 26.6C50.2206 26.4133 50.1646 26.216 50.1113 26.008C49.9993 26.44 49.8846 26.8 49.7673 27.088L47.9673 31.744H52.2473ZM55.4793 36H54.2793C54.1406 36 54.0286 35.9653 53.9433 35.896C53.858 35.8267 53.794 35.7387 53.7513 35.632L52.6793 32.864H47.5353L46.4633 35.632C46.4313 35.728 46.37 35.8133 46.2793 35.888C46.1886 35.9627 46.0766 36 45.9433 36H44.7433L49.3273 24.536H50.8953L55.4793 36Z" fill="black"/>
<path d="M52.7477 15L36.2523 35.0217L26.5 26.0498L22 30.1926L36.9977 44L58 19.1429L52.7477 15Z" fill="#2F9300" fill-opacity="0.69"/>
</g>
<defs>
<clipPath id="clip0">
<rect width="59" height="59" fill="white"/>
</clipPath>
</defs>
</svg>
