<svg width="59" height="59" viewBox="0 0 59 59" fill="none" xmlns="http://www.w3.org/2000/svg">
<g clip-path="url(#clip0)">
<path d="M51.625 22.125H7.375C7.375 22.125 7.375 7.375 29.5 7.375C51.625 7.375 51.625 22.125 51.625 22.125ZM32.8187 41.7917H7.375V44.25C7.375 48.3308 10.6692 51.625 14.75 51.625H32.8187C32.2779 50.0763 31.9583 48.4292 31.9583 46.7083C31.9583 44.9875 32.2779 43.3404 32.8187 41.7917ZM53.7392 33.7529C54.0312 33.0079 54.1371 32.2029 54.0475 31.4077C53.9578 30.6126 53.6755 29.8513 53.2249 29.19C52.7744 28.5287 52.1692 27.9873 51.462 27.613C50.7548 27.2386 49.9669 27.0425 49.1667 27.0417H27.0417L20.8958 31.9583L14.75 27.0417H9.83333C7.12917 27.0417 4.91667 29.2542 4.91667 31.9583C4.91667 34.6625 7.12917 36.875 9.83333 36.875H35.7442C38.4483 33.8758 42.3571 31.9583 46.7083 31.9583C49.265 31.9583 51.625 32.5975 53.7392 33.7529ZM52.4608 38.94L43.6354 47.7654L39.7267 43.8567L36.875 46.7083L43.6354 54.0833L55.3125 42.4063L52.4608 38.94Z" fill="black"/>
</g>
<defs>
<clipPath id="clip0">
<rect width="59" height="59" fill="white"/>
</clipPath>
</defs>
</svg>
