<svg width="59" height="59" viewBox="0 0 59 59" fill="none" xmlns="http://www.w3.org/2000/svg">
<path d="M59 29.5C59 25.4851 56.7639 21.7828 53.0085 18.8151C53.0027 18.8121 52.9968 18.8122 52.9938 18.8062C51.9259 8.26885 41.8222 0 29.5 0C17.1779 0 7.0741 8.26885 6.0062 18.8062C6.00325 18.8122 5.99735 18.8121 5.99145 18.8151C2.2361 21.7828 0 25.4851 0 29.5C0 38.6804 11.6437 46.2236 26.55 47.1115V50.15C26.55 53.1 21.1781 55.7874 21.1781 55.7874C21.035 55.8621 20.9237 55.9858 20.8646 56.136C20.8056 56.2861 20.8027 56.4525 20.8565 56.6046C20.8565 56.6046 21.7563 59 23.6 59C25.4438 59 26.9158 57.525 30.6033 57.525C34.2908 57.525 37.7984 58.7994 37.7984 58.7994C37.965 58.8504 38.1419 58.8573 38.312 58.8196C38.4821 58.7818 38.6395 58.7007 38.7689 58.584L40.8841 56.4689C41.1142 56.2388 41.0551 55.9586 40.7483 55.8435C40.7483 55.8435 35.403 53.8375 35.403 50.15V46.843C48.8668 45.2058 59 38.0639 59 29.5ZM5.9 29.5C5.9 26.4939 8.1656 23.7623 11.8649 21.6796C11.8354 21.3374 11.8 20.9951 11.8 20.65C11.8 12.5021 19.7267 5.9 29.5 5.9C39.2733 5.9 47.2 12.5021 47.2 20.65C47.2 20.9951 47.1646 21.3374 47.1381 21.6796C50.8344 23.7623 53.1 26.4939 53.1 29.5C53.1 34.9988 45.5746 39.6008 35.403 40.9136V38.943C35.4226 38.5712 35.5743 38.2187 35.8307 37.9488L41.2381 32.8571C41.4946 32.5871 41.6472 32.2348 41.6688 31.8629V29.3525C41.6688 29.028 41.4387 28.8953 41.1614 29.0604L35.9133 32.1491C35.6301 32.3143 35.403 32.1845 35.403 31.857V21.24C35.403 20.9155 35.1522 20.7326 34.8424 20.8359L27.1105 23.4142C26.9524 23.4756 26.8156 23.5817 26.7167 23.7194C26.6177 23.8571 26.5608 24.0206 26.553 24.19V31.86C26.553 32.1845 26.3199 32.3261 26.0308 32.1756L20.0659 29.0369C19.9131 28.9649 19.7424 28.9399 19.5753 28.9651C19.4083 28.9903 19.2526 29.0646 19.1278 29.1784L18.1189 30.1873C18.0647 30.2403 18.022 30.304 17.9937 30.3743C17.9655 30.4447 17.9522 30.5201 17.9547 30.5959C17.9571 30.6716 17.9754 30.7461 18.0083 30.8144C18.0411 30.8827 18.0878 30.9434 18.1455 30.9927L26.1105 37.9576C26.3553 38.173 26.553 38.6126 26.553 38.937V41.1938C14.9152 40.4711 5.9 35.518 5.9 29.5Z" fill="black"/>
</svg>
